# xmcd CD database file
#
# Track frame offsets:
#	150
#	28219
#	63613
#	92389
#	110313
#	137101
#	158879
#	220102
#
# Disc length: 3225 seconds
#
# Revision: 2
# Processed by: cddbd v1.5.1PL2 Copyright (c) Steve Scherf et al.
# Submitted via: CDex 1.51
#
DISCID=6a0c9708
DTITLE=Appollon Arsène - Dédicace
DYEAR=2000
DGENRE=compas
TTITLE0=Sisse
TTITLE1=Punch En Musique
TTITLE2=Bingo
TTITLE3=La Fleur Et L' Oiseau
TTITLE4=Metress
TTITLE5=Vanité
TTITLE6=Ballade En Compas
TTITLE7=Vanidad
EXTD=YEAR: 2000
EXTT0=
EXTT1=
EXTT2=
EXTT3=
EXTT4=
EXTT5=
EXTT6=
EXTT7=
PLAYORDER=
